<?xml version="1.0" encoding="UTF-8"?>
<!DOCTYPE svg PUBLIC "-//W3C//DTD SVG 1.1//EN" "http://www.w3.org/Graphics/SVG/1.1/DTD/svg11.dtd">
<svg xmlns="http://www.w3.org/2000/svg" version="1.1" viewBox="0 0 96 96" style="shape-rendering:geometricPrecision; text-rendering:geometricPrecision; image-rendering:optimizeQuality; fill-rule:evenodd; clip-rule:evenodd" xmlns:xlink="http://www.w3.org/1999/xlink">
<g><path style="opacity:0.885" fill="currentColor" d="M 38.5,7.5 C 59.8152,4.5723 75.3152,12.5723 85,31.5C 87.0621,36.3311 87.7288,41.3311 87,46.5C 84.9361,47.5914 82.7695,47.7581 80.5,47C 78.8001,40.0776 75.9667,33.5776 72,27.5C 59.7823,15.409 45.949,13.2423 30.5,21C 28.0072,22.5826 28.1738,24.0826 31,25.5C 31.4955,27.4727 31.6621,29.4727 31.5,31.5C 25.1579,31.6662 18.8246,31.4995 12.5,31C 11.5223,24.5898 11.189,18.0898 11.5,11.5C 13.5273,11.3379 15.5273,11.5045 17.5,12C 18.7252,13.563 20.2252,14.7297 22,15.5C 27.1562,11.9577 32.6562,9.29102 38.5,7.5 Z"/></g>
<g><path style="opacity:0.847" fill="currentColor" d="M 45.5,21.5 C 46.8333,21.5 48.1667,21.5 49.5,21.5C 49.5,23.5 49.5,25.5 49.5,27.5C 54.4444,28.4441 57.4444,31.4441 58.5,36.5C 57.4612,40.1493 55.1279,41.316 51.5,40C 50.13,38.5587 49.13,36.892 48.5,35C 45.0353,35.0572 43.8686,36.8905 45,40.5C 47.9063,43.0373 51.073,45.204 54.5,47C 59.0459,52.4878 59.5459,58.3211 56,64.5C 54.2658,66.4506 52.0991,67.4506 49.5,67.5C 49.6602,69.1992 49.4935,70.8659 49,72.5C 47.6667,73.8333 46.3333,73.8333 45,72.5C 44.5065,70.8659 44.3398,69.1992 44.5,67.5C 37.5799,66.4112 34.7466,62.4112 36,55.5C 40.6034,53.2812 43.4368,54.6145 44.5,59.5C 46.0064,60.7472 47.5064,60.7472 49,59.5C 49.6667,57.5 49.6667,55.5 49,53.5C 44.4634,51.23 40.4634,48.23 37,44.5C 34.2737,36.9686 36.4403,31.302 43.5,27.5C 44.4767,25.5891 45.1433,23.5891 45.5,21.5 Z"/></g>
<g><path style="opacity:0.883" fill="currentColor" d="M 10.5,46.5 C 12.679,46.84 14.5123,47.84 16,49.5C 20.9366,72.7506 35.1032,81.9172 58.5,77C 61.5032,75.8338 64.1698,74.1672 66.5,72C 63.8748,69.8038 62.8748,66.9705 63.5,63.5C 69.8421,63.3338 76.1754,63.5005 82.5,64C 83.4777,70.4102 83.811,76.9102 83.5,83.5C 81.4727,83.6621 79.4727,83.4955 77.5,83C 76.2748,81.437 74.7748,80.2703 73,79.5C 58.5277,88.7591 43.3611,89.9258 27.5,83C 14.562,75.0791 8.06204,63.5791 8,48.5C 8.9947,47.9341 9.82803,47.2674 10.5,46.5 Z"/></g>
</svg>
