<?xml version="1.0" encoding="UTF-8"?>
<!DOCTYPE svg PUBLIC "-//W3C//DTD SVG 1.1//EN" "http://www.w3.org/Graphics/SVG/1.1/DTD/svg11.dtd">
<svg viewBox="0 0 100 100" xmlns="http://www.w3.org/2000/svg" version="1.1" style="shape-rendering:geometricPrecision; text-rendering:geometricPrecision; image-rendering:optimizeQuality; fill-rule:evenodd; clip-rule:evenodd" xmlns:xlink="http://www.w3.org/1999/xlink">
<g><path style="opacity:0.981" fill="currentColor" d="M 6.5,15.5 C 35.1686,15.3334 63.8353,15.5 92.5,16C 95.1667,18.3333 95.1667,20.6667 92.5,23C 63.8333,23.6667 35.1667,23.6667 6.5,23C 3.98238,20.5212 3.98238,18.0212 6.5,15.5 Z"/></g>
<g><path style="opacity:0.981" fill="currentColor" d="M 6.5,45.5 C 35.1686,45.3334 63.8353,45.5 92.5,46C 95.1667,48.3333 95.1667,50.6667 92.5,53C 63.8333,53.6667 35.1667,53.6667 6.5,53C 3.98238,50.5212 3.98238,48.0212 6.5,45.5 Z"/></g>
<g><path style="opacity:0.981" fill="currentColor" d="M 6.5,75.5 C 35.1686,75.3334 63.8353,75.5 92.5,76C 95.1667,78.3333 95.1667,80.6667 92.5,83C 63.8333,83.6667 35.1667,83.6667 6.5,83C 3.98238,80.5212 3.98238,78.0212 6.5,75.5 Z"/></g>
</svg>