<?xml version="1.0" encoding="UTF-8"?>
<!DOCTYPE svg PUBLIC "-//W3C//DTD SVG 1.1//EN" "http://www.w3.org/Graphics/SVG/1.1/DTD/svg11.dtd">
<svg xmlns="http://www.w3.org/2000/svg" version="1.1" viewBox="0 0 67 67" style="shape-rendering:geometricPrecision; text-rendering:geometricPrecision; image-rendering:optimizeQuality; fill-rule:evenodd; clip-rule:evenodd" xmlns:xlink="http://www.w3.org/1999/xlink">
<g><path style="opacity:0.945" fill="currentColor" d="M 45.5,66.5 C 34.1667,66.5 22.8333,66.5 11.5,66.5C 11.5,44.5 11.5,22.5 11.5,0.5C 23.1714,0.333469 34.8381,0.500136 46.5,1C 59.2148,4.26421 63.0482,12.0975 58,24.5C 56.1266,26.7089 53.96,28.5422 51.5,30C 61.5921,32.6813 65.7588,39.1813 64,49.5C 61.4582,59.2119 55.2916,64.8785 45.5,66.5 Z M 28.5,13.5 C 32.9113,13.021 37.078,13.6876 41,15.5C 43.0522,18.4602 42.8855,21.2935 40.5,24C 36.6538,25.536 32.6538,26.3693 28.5,26.5C 28.5,22.1667 28.5,17.8333 28.5,13.5 Z M 28.5,38.5 C 32.8461,38.3343 37.1794,38.501 41.5,39C 46.453,41.6396 47.6197,45.4729 45,50.5C 43.5806,51.4601 42.0806,52.2935 40.5,53C 36.5138,53.4988 32.5138,53.6655 28.5,53.5C 28.5,48.5 28.5,43.5 28.5,38.5 Z"/></g>
</svg>
