<?xml version="1.0" encoding="UTF-8"?>
<!DOCTYPE svg PUBLIC "-//W3C//DTD SVG 1.1//EN" "http://www.w3.org/Graphics/SVG/1.1/DTD/svg11.dtd">
<svg xmlns="http://www.w3.org/2000/svg" version="1.1" viewBox="0 0 90 90" style="shape-rendering:geometricPrecision; text-rendering:geometricPrecision; image-rendering:optimizeQuality; fill-rule:evenodd; clip-rule:evenodd" xmlns:xlink="http://www.w3.org/1999/xlink">
<g><path style="opacity:0.929" fill="currentColor" d="M -0.5,49.5 C -0.5,46.1667 -0.5,42.8333 -0.5,39.5C 3.34795,32.9543 9.01462,30.7876 16.5,33C 23.5495,37.4869 25.3828,43.6535 22,51.5C 17.8604,56.2114 12.6938,57.7114 6.5,56C 3.64238,54.3059 1.30904,52.1393 -0.5,49.5 Z"/></g>
<g><path style="opacity:0.929" fill="currentColor" d="M 39.5,32.5 C 52.3202,31.1527 57.8202,36.8194 56,49.5C 52.3449,56.0702 46.8449,58.2368 39.5,56C 32.9298,52.3449 30.7632,46.8449 33,39.5C 34.6941,36.6424 36.8607,34.309 39.5,32.5 Z"/></g>
<g><path style="opacity:0.929" fill="currentColor" d="M 89.5,39.5 C 89.5,42.8333 89.5,46.1667 89.5,49.5C 85.6521,56.0457 79.9854,58.2124 72.5,56C 65.4505,51.5131 63.6172,45.3465 67,37.5C 71.1396,32.7886 76.3062,31.2886 82.5,33C 85.3576,34.6941 87.691,36.8607 89.5,39.5 Z"/></g>
</svg>
