<svg xmlns="http://www.w3.org/2000/svg" xmlns:xlink="http://www.w3.org/1999/xlink" viewBox="0,0,256,256"  fill-rule="nonzero"><g fill="currentColor" fill-rule="nonzero" stroke="none" stroke-width="1" stroke-linecap="butt" stroke-linejoin="miter" stroke-miterlimit="10" stroke-dasharray="" stroke-dashoffset="0" font-family="none" font-weight="none" font-size="none" text-anchor="none" style="mix-blend-mode: normal"><g transform="scale(2,2)"><path d="M64,1c-34.74,0 -63,28.26 -63,63c0,34.74 28.26,63 63,63c34.74,0 63,-28.26 63,-63c0,-34.74 -28.26,-63 -63,-63zM64,7c31.43,0 57,25.57 57,57c0,31.43 -25.57,57 -57,57c-31.43,0 -57,-25.57 -57,-57c0,-31.43 25.57,-57 57,-57zM53,31c-1.66,0 -3,1.34 -3,3v7h-3c-1.66,0 -3,1.34 -3,3c0,1.66 1.34,3 3,3h3v34h-3c-1.66,0 -3,1.34 -3,3c0,1.66 1.34,3 3,3h3v7c0,1.66 1.34,3 3,3c1.66,0 3,-1.34 3,-3v-7h8v7c0,1.66 1.34,3 3,3c1.66,0 3,-1.34 3,-3v-7h5c7.17,0 13,-5.83 13,-13c0,-5.63 -3.59937,-10.4107 -8.60937,-12.2207c1.63,-2.17 2.60938,-4.8593 2.60938,-7.7793c0,-6.83 -5.3,-12.43922 -12,-12.94922v-7.05078c0,-1.66 -1.34,-3 -3,-3c-1.66,0 -3,1.34 -3,3v7h-8v-7c0,-1.66 -1.34,-3 -3,-3zM56,47h13c3.86,0 7,3.14 7,7c0,3.86 -3.14,7 -7,7h-13zM56,67h13h6c3.86,0 7,3.14 7,7c0,3.86 -3.14,7 -7,7h-19z"></path></g></g></svg>