<?xml version="1.0" encoding="UTF-8"?>
<!DOCTYPE svg PUBLIC "-//W3C//DTD SVG 1.1//EN" "http://www.w3.org/Graphics/SVG/1.1/DTD/svg11.dtd">
<svg xmlns="http://www.w3.org/2000/svg" version="1.1" width="28px" height="28px" viewBox="0 0 103 103" xmlns:xlink="http://www.w3.org/1999/xlink">
<g><path style="opacity:0.897" fill="currentColor" d="M 17.5,26.5 C 19.5,26.5 21.5,26.5 23.5,26.5C 23.6621,28.5273 23.4955,30.5273 23,32.5C 20.1667,35.3333 17.3333,38.1667 14.5,41C 38.5069,41.1669 62.5069,41.6669 86.5,42.5C 87.8333,43.8333 87.8333,45.1667 86.5,46.5C 62.5069,47.3331 38.5069,47.8331 14.5,48C 18.3932,51.39 21.7265,55.2233 24.5,59.5C 23.0736,63.2229 20.7403,64.0562 17.5,62C 11.6135,56.6161 6.28014,50.7828 1.5,44.5C 6.48438,38.1827 11.8177,32.1827 17.5,26.5 Z"/></g>
</svg>
