<?xml version="1.0" encoding="UTF-8"?>
<!DOCTYPE svg PUBLIC "-//W3C//DTD SVG 1.1//EN" "http://www.w3.org/Graphics/SVG/1.1/DTD/svg11.dtd">
<svg xmlns="http://www.w3.org/2000/svg" version="1.1" width="100px" height="100px" style="shape-rendering:geometricPrecision; text-rendering:geometricPrecision; image-rendering:optimizeQuality; fill-rule:evenodd; clip-rule:evenodd" xmlns:xlink="http://www.w3.org/1999/xlink">
<g><path style="opacity:0.949" fill="currentColor" d="M 99.5,36.5 C 99.5,37.8333 99.5,39.1667 99.5,40.5C 91.1622,47.3336 82.6622,54.0003 74,60.5C 73.3333,62.1667 73.3333,63.8333 74,65.5C 76.5785,74.9808 79.0785,84.4808 81.5,94C 81.6125,95.6624 80.9458,96.8291 79.5,97.5C 69.5323,91.3638 59.699,85.0304 50,78.5C 40.5,84.6667 31,90.8333 21.5,97C 18.77,97.9415 17.4367,96.9415 17.5,94C 19.9215,84.4808 22.4215,74.9808 25,65.5C 25.6667,63.8333 25.6667,62.1667 25,60.5C 16.3378,54.0003 7.83777,47.3336 -0.5,40.5C -0.5,39.1667 -0.5,37.8333 -0.5,36.5C 11.0878,35.3765 22.7545,34.5431 34.5,34C 38.5247,24.2623 42.358,14.429 46,4.5C 47.2242,1.52696 49.2242,0.860292 52,2.5C 56.1396,13.0878 59.973,23.7544 63.5,34.5C 75.5963,34.4347 87.5963,35.1014 99.5,36.5 Z"/></g>
</svg>
