<?xml version="1.0" standalone="no"?>
<!DOCTYPE svg PUBLIC "-//W3C//DTD SVG 20010904//EN"
 "http://www.w3.org/TR/2001/REC-SVG-20010904/DTD/svg10.dtd">
<svg version="1.0" xmlns="http://www.w3.org/2000/svg"
 viewBox="0 0 48.000000 48.000000"
 preserveAspectRatio="xMidYMid meet">

<g transform="translate(0.000000,48.000000) scale(0.100000,-0.100000)"
fill="currentColor" stroke="none">
<path d="M140 428 c-69 -37 -104 -94 -108 -176 -3 -56 0 -74 20 -112 37 -69
94 -104 176 -108 56 -3 74 0 112 20 69 37 104 94 108 176 3 56 0 74 -20 112
-37 69 -94 104 -176 108 -56 3 -74 0 -112 -20z m194 -32 c84 -49 112 -164 62
-250 -67 -115 -245 -115 -312 0 -33 56 -33 134 0 188 51 84 164 112 250 62z"/>
<path d="M153 379 c-44 -28 -75 -81 -71 -121 l3 -33 76 -3 c96 -4 101 2 97
100 l-3 73 -35 3 c-22 1 -47 -5 -67 -19z"/>
</g>
</svg>
