<?xml version="1.0" standalone="no"?>
<!DOCTYPE svg PUBLIC "-//W3C//DTD SVG 20010904//EN"
 "http://www.w3.org/TR/2001/REC-SVG-20010904/DTD/svg10.dtd">
<svg version="1.0" xmlns="http://www.w3.org/2000/svg"
viewBox="0 0 64.000000 64.000000"
 preserveAspectRatio="xMidYMid meet">

<g transform="translate(0.000000,64.000000) scale(0.100000,-0.100000)"
fill="currentColor" stroke="none">
<path d="M106 535 c-56 -56 -63 -143 -13 -156 15 -4 37 -19 48 -33 11 -14 28
-28 39 -31 18 -6 18 -8 5 -29 -13 -20 -13 -25 0 -42 8 -10 15 -29 15 -41 0
-33 40 -56 74 -44 23 9 27 7 41 -19 17 -33 80 -70 120 -70 37 0 86 23 114 54
18 18 26 41 29 79 5 66 -15 110 -63 138 -29 17 -34 26 -39 73 -4 31 -14 61
-24 69 -9 9 -54 22 -99 31 -46 9 -101 25 -123 36 -56 29 -84 26 -124 -15z
m112 -4 c20 -10 75 -26 121 -35 47 -8 90 -21 97 -28 7 -7 15 -33 19 -58 l7
-45 -39 0 c-35 0 -38 2 -38 28 1 27 -1 29 -32 24 -28 -5 -33 -3 -33 14 0 11
-4 17 -10 14 -23 -14 -9 -64 35 -121 47 -60 54 -84 31 -103 -11 -9 -20 -3 -46
29 -32 40 -94 80 -125 80 -9 0 -32 16 -52 35 -20 19 -44 35 -55 35 -39 0 -14
101 34 134 29 21 41 20 86 -3z m145 -153 c9 -32 -3 -43 -20 -19 -14 20 -11 41
6 41 5 0 11 -10 14 -22z m170 -78 c22 -25 27 -40 27 -81 0 -44 -4 -55 -33 -84
-43 -43 -79 -52 -130 -34 -48 17 -75 51 -84 104 l-6 40 26 -28 c22 -23 30 -26
47 -17 31 16 35 54 11 95 l-20 35 32 8 c47 12 98 -3 130 -38z m-272 -10 c26
-14 24 -27 -5 -34 -13 -3 -31 -8 -39 -12 -21 -8 -29 23 -11 41 18 18 28 19 55
5z m29 -75 c0 -26 -32 -47 -57 -38 -19 7 -16 40 5 52 31 19 52 13 52 -14z"/>
</g>
</svg>
